<svg xmlns="http://www.w3.org/2000/svg" width="500" height="500" viewBox="0 0 500 500">
<g>
<path d="M 190.90,434.73 L 189.82,434.01 L 188.04,432.25 L 187.22,431.32 L 185.96,429.24 L 185.40,428.17 L 184.66,425.89 L 184.36,424.74 L 184.16,422.37 L 184.12,421.18 L 184.44,418.83 L 184.67,417.68 L 185.53,415.47 L 186.03,414.39 L 187.42,412.44 L 190.12,409.91 L 193.00,407.86 L 193.00,389.87 L 193.00,387.39 L 193.07,382.74 L 193.12,380.50 L 193.27,376.65 L 193.31,375.75 L 193.41,374.19 L 193.46,373.45 L 193.57,372.23 L 193.62,371.67 L 193.74,370.85 L 193.92,370.14 L 194.05,369.90 L 194.68,369.28 L 195.05,368.95 L 196.07,368.22 L 199.92,366.04 L 205.00,363.66 L 205.00,354.78 L 205.00,345.90 L 210.75,346.20 L 216.50,346.50 L 216.78,357.86 L 216.82,359.46 L 216.87,362.12 L 216.89,363.36 L 216.84,365.38 L 216.80,366.32 L 216.61,367.84 L 216.50,368.54 L 216.11,369.68 L 215.89,370.21 L 215.26,371.09 L 214.91,371.50 L 213.98,372.25 L 213.47,372.62 L 212.19,373.36 L 209.81,374.59 L 205.00,377.03 L 205.00,392.45 L 205.00,407.86 L 208.02,410.01 L 209.08,410.77 L 210.79,412.60 L 211.57,413.56 L 212.71,415.70 L 213.21,416.80 L 213.78,419.13 L 214.00,420.30 L 214.02,422.70 L 213.96,423.90 L 213.42,426.25 L 213.09,427.42 L 212.01,429.61 L 211.40,430.67 L 209.79,432.58 L 206.76,435.01 L 205.63,435.70 L 202.98,436.54 L 201.62,436.87 L 198.77,437.00 L 197.34,436.97 L 194.58,436.39 L 193.24,436.01 M 293.24,435.01 L 292.08,434.30 L 290.18,432.52 L 289.30,431.59 L 287.96,429.45 L 287.35,428.35 L 286.57,425.97 L 286.25,424.77 L 286.03,422.29 L 285.99,421.05 L 286.34,418.60 L 286.59,417.40 L 287.51,415.10 L 288.05,413.99 L 289.55,411.98 L 292.45,409.44 L 293.09,409.02 L 293.93,408.23 L 294.10,408.00 L 294.38,407.37 L 294.50,407.01 L 294.68,406.06 L 294.76,405.52 L 294.87,404.11 L 294.91,403.33 L 294.96,401.31 L 294.98,400.22 L 295.00,397.48 L 295.00,392.40 L 295.00,377.03 L 290.19,374.59 L 289.29,374.14 L 287.81,373.36 L 287.12,372.98 L 286.02,372.25 L 285.51,371.88 L 284.74,371.09 L 284.39,370.67 L 283.89,369.68 L 283.66,369.15 L 283.39,367.84 L 283.27,367.13 L 283.16,365.38 L 283.12,364.44 L 283.13,362.12 L 283.22,357.86 L 283.50,346.50 L 289.25,346.20 L 295.00,345.90 L 295.00,354.78 L 295.00,363.66 L 300.08,366.04 L 301.47,366.69 L 303.93,368.22 L 304.47,368.59 L 305.32,369.28 L 306.08,370.14 L 306.14,370.26 L 306.26,370.85 L 306.32,371.21 L 306.43,372.23 L 306.49,372.79 L 306.59,374.19 L 306.64,374.93 L 306.73,376.65 L 306.81,378.44 L 306.93,382.74 L 307.00,389.87 L 307.00,407.86 L 309.88,409.91 L 310.91,410.65 L 312.58,412.44 L 313.34,413.37 L 314.47,415.47 L 314.97,416.54 L 315.56,418.83 L 315.79,419.99 L 315.84,422.37 L 315.81,423.55 L 315.34,425.89 L 315.04,427.05 L 314.04,429.24 L 313.48,430.31 L 311.96,432.25 L 309.10,434.73 L 308.01,435.46 L 305.42,436.39 L 304.08,436.77 L 301.23,437.00 L 299.81,437.02 L 297.02,436.54 L 295.66,436.21 M 244.00,411.35 L 242.75,410.84 L 240.48,409.10 L 239.40,408.13 L 237.62,405.66 L 236.81,404.37 L 235.70,401.48 L 235.00,397.00 L 235.00,395.73 L 235.38,393.38 L 235.63,392.24 L 236.51,390.16 L 237.01,389.15 L 238.38,387.36 L 240.96,385.03 L 243.96,382.90 L 244.23,364.70 L 244.50,346.50 L 250.00,346.50 L 255.50,346.50 L 255.77,364.70 L 256.04,382.90 L 259.04,385.03 L 260.02,385.72 L 261.62,387.37 L 262.36,388.22 L 263.49,390.12 L 263.99,391.10 L 264.64,393.18 L 264.90,394.24 L 265.07,396.43 L 265.10,397.53 L 264.79,399.75 L 264.57,400.85 L 263.78,403.01 L 263.32,404.08 L 262.04,406.12 L 259.58,408.94 L 259.08,409.41 L 258.05,410.13 L 257.52,410.46 L 256.32,410.92 L 255.68,411.13 L 254.13,411.41 L 251.24,411.66 L 249.66,411.74 L 246.74,411.69 L 246.09,411.66 L 245.04,411.56 L 244.56,411.50 M 187.78,336.61 L 186.35,336.22 L 183.52,335.07 L 182.12,334.44 L 179.42,332.86 L 178.08,332.02 L 175.55,330.06 L 174.31,329.04 L 172.02,326.78 L 170.90,325.62 L 168.90,323.11 L 167.95,321.83 L 166.30,319.14 L 165.53,317.78 L 164.30,314.97 L 162.99,310.68 L 162.89,310.23 L 162.72,308.58 L 162.64,307.63 L 162.50,304.94 L 162.47,304.20 L 162.41,302.53 L 162.38,301.65 L 162.33,299.70 L 162.30,298.69 L 162.26,296.45 L 162.24,295.30 L 162.21,292.78 L 162.19,291.48 L 162.16,288.67 L 162.15,287.23 L 162.13,284.12 L 162.12,282.52 L 162.11,279.11 L 162.11,277.37 L 162.10,273.65 L 162.10,271.75 L 162.10,267.71 L 162.11,265.65 L 162.12,261.30 L 162.12,259.08 L 162.14,254.40 L 162.18,247.00 L 162.50,188.50 L 165.42,182.55 L 166.35,180.66 L 168.60,177.21 L 169.79,175.54 L 172.54,172.54 L 173.98,171.11 L 177.21,168.60 L 182.55,165.42 L 188.50,162.50 L 250.00,162.50 L 311.50,162.50 L 317.45,165.42 L 319.34,166.35 L 322.79,168.60 L 324.46,169.79 L 327.46,172.54 L 328.89,173.98 L 331.40,177.21 L 334.58,182.55 L 337.50,188.50 L 337.50,250.00 L 337.50,311.50 L 334.83,317.20 L 333.98,319.01 L 331.66,322.54 L 330.41,324.27 L 327.46,327.46 L 325.92,329.00 L 322.54,331.66 L 317.20,334.83 L 311.50,337.50 L 252.00,337.70 L 249.13,337.71 L 243.76,337.72 L 241.13,337.73 L 236.22,337.74 L 233.82,337.74 L 229.35,337.74 L 227.17,337.74 L 223.13,337.73 L 221.16,337.73 L 217.51,337.71 L 215.74,337.70 L 212.48,337.68 L 210.90,337.67 L 208.01,337.64 L 206.60,337.62 L 204.05,337.58 L 202.82,337.56 L 200.60,337.51 L 199.52,337.49 L 197.61,337.43 L 196.68,337.40 L 195.05,337.33 L 194.27,337.30 L 192.90,337.22 L 191.60,337.14 L 189.70,336.95 L 188.86,336.85 M 312.32,319.13 L 312.84,318.80 L 314.01,317.89 L 314.60,317.40 L 315.80,316.26 L 316.39,315.68 L 317.47,314.46 L 318.82,312.70 L 321.50,308.65 L 321.50,249.91 L 321.50,191.17 L 318.49,186.88 L 317.66,185.70 L 315.33,183.25 L 314.74,182.68 L 313.58,181.68 L 311.99,180.55 L 311.56,180.30 L 310.69,179.89 L 310.21,179.69 L 308.90,179.38 L 308.52,179.31 L 307.61,179.19 L 307.12,179.13 L 305.95,179.02 L 305.32,178.97 L 303.82,178.88 L 303.03,178.84 L 301.15,178.77 L 300.16,178.74 L 297.85,178.69 L 296.63,178.66 L 293.83,178.62 L 292.36,178.60 L 289.02,178.57 L 287.27,178.56 L 283.32,178.54 L 281.26,178.53 L 276.65,178.52 L 274.26,178.51 L 268.93,178.51 L 266.18,178.50 L 260.08,178.50 L 250.00,178.50 L 191.50,178.50 L 187.68,180.87 L 187.16,181.20 L 185.99,182.11 L 185.40,182.60 L 184.20,183.74 L 183.61,184.32 L 182.53,185.54 L 181.18,187.30 L 178.50,191.35 L 178.22,247.70 L 178.21,250.09 L 178.19,254.65 L 178.18,256.89 L 178.17,261.15 L 178.16,263.25 L 178.16,267.23 L 178.16,269.18 L 178.16,272.87 L 178.16,274.68 L 178.17,278.09 L 178.18,279.75 L 178.19,282.88 L 178.20,284.40 L 178.23,287.25 L 178.24,288.63 L 178.27,291.19 L 178.29,292.44 L 178.33,294.73 L 178.35,295.84 L 178.39,297.85 L 178.42,298.82 L 178.47,300.56 L 178.50,301.40 L 178.56,302.87 L 178.59,303.57 L 178.66,304.77 L 178.69,305.33 L 178.77,306.27 L 179.02,308.08 L 179.18,308.69 L 179.73,309.97 L 180.04,310.62 L 180.83,311.94 L 181.68,313.27 L 183.88,315.80 L 185.03,317.01 L 187.55,319.00 L 188.18,319.44 L 189.42,320.15 L 191.21,320.89 L 191.33,320.92 L 191.84,320.99 L 192.13,321.03 L 192.97,321.09 L 193.42,321.12 L 194.58,321.18 L 195.19,321.21 L 196.65,321.27 L 197.42,321.30 L 199.18,321.35 L 200.09,321.37 L 202.13,321.42 L 203.19,321.44 L 205.50,321.48 L 206.69,321.50 L 209.26,321.54 L 211.90,321.57 L 217.91,321.63 L 221.03,321.65 L 227.92,321.68 L 231.47,321.69 L 239.17,321.70 L 251.50,321.68 L 308.50,321.50 L 312.32,319.13 M 71.02,314.25 L 69.79,313.63 L 67.74,312.03 L 66.79,311.18 L 65.31,309.21 L 64.64,308.18 L 63.72,305.94 L 63.34,304.79 L 63.01,302.38 L 62.91,301.17 L 63.17,298.71 L 63.37,297.48 L 64.22,295.08 L 64.72,293.90 L 66.17,291.66 L 69.04,288.62 L 69.77,288.00 L 71.47,287.09 L 72.34,286.69 L 74.25,286.18 L 75.23,285.98 L 77.26,285.88 L 78.28,285.87 L 80.34,286.15 L 81.36,286.33 L 83.35,286.96 L 84.33,287.32 L 86.15,288.30 L 87.04,288.83 L 88.60,290.14 L 90.56,292.45 L 92.23,295.00 L 107.67,295.00 L 123.11,295.00 L 125.02,290.69 L 125.43,289.76 L 126.17,288.22 L 126.53,287.50 L 127.25,286.35 L 127.63,285.81 L 128.46,284.98 L 128.89,284.60 L 129.94,284.05 L 130.50,283.80 L 131.88,283.48 L 132.62,283.35 L 134.44,283.20 L 135.42,283.15 L 137.80,283.14 L 142.12,283.22 L 153.50,283.50 L 153.50,289.00 L 153.50,294.50 L 144.90,294.79 L 136.31,295.07 L 133.95,300.11 L 133.30,301.50 L 131.77,303.94 L 131.40,304.48 L 130.72,305.32 L 129.86,306.08 L 129.74,306.14 L 129.15,306.26 L 128.79,306.32 L 127.77,306.43 L 127.21,306.49 L 125.81,306.59 L 125.07,306.64 L 123.35,306.73 L 121.56,306.81 L 117.26,306.93 L 110.13,307.00 L 92.14,307.00 L 90.09,309.88 L 89.57,310.60 L 88.36,311.86 L 87.72,312.46 L 86.30,313.46 L 85.57,313.93 L 83.99,314.67 L 83.18,315.01 L 81.49,315.47 L 80.63,315.67 L 78.87,315.84 L 77.98,315.89 L 76.20,315.78 L 75.32,315.68 L 73.56,315.25 L 72.70,315.00 M 415.22,314.34 L 414.32,313.89 L 412.30,312.35 L 409.90,309.86 L 407.86,307.00 L 389.87,307.00 L 387.39,307.00 L 382.74,306.93 L 380.50,306.88 L 376.65,306.73 L 375.75,306.69 L 374.19,306.59 L 373.45,306.54 L 372.23,306.43 L 371.67,306.38 L 370.85,306.26 L 370.14,306.08 L 369.90,305.95 L 369.28,305.32 L 368.96,304.95 L 368.23,303.94 L 366.05,300.11 L 363.69,295.07 L 355.10,294.79 L 346.50,294.50 L 346.50,289.00 L 346.50,283.50 L 357.88,283.22 L 359.50,283.18 L 362.22,283.14 L 363.49,283.14 L 365.60,283.22 L 366.58,283.27 L 368.19,283.51 L 368.94,283.65 L 370.15,284.09 L 370.72,284.34 L 371.66,285.03 L 372.11,285.41 L 372.88,286.41 L 373.26,286.94 L 373.97,288.29 L 375.09,290.75 L 376.93,295.00 L 392.28,295.00 L 407.62,295.00 L 409.83,292.02 L 410.67,290.88 L 412.53,289.12 L 413.50,288.33 L 415.66,287.22 L 416.79,286.75 L 419.34,286.27 L 423.67,286.22 L 424.70,286.31 L 426.60,286.71 L 427.53,286.95 L 429.22,287.65 L 430.04,288.04 L 431.50,289.02 L 432.20,289.55 L 433.42,290.79 L 433.99,291.44 L 434.95,292.92 L 435.39,293.70 L 436.07,295.41 L 436.38,296.29 L 436.76,298.21 L 437.00,301.30 L 437.00,302.66 L 436.47,305.18 L 436.13,306.41 L 435.00,308.61 L 434.36,309.67 L 432.73,311.50 L 431.87,312.35 L 429.84,313.74 L 428.79,314.36 L 426.49,315.23 L 425.31,315.60 L 422.82,315.90 L 421.57,315.97 L 419.01,315.63 L 417.74,315.38 M 95.24,263.01 L 94.43,262.51 L 93.04,261.40 L 92.37,260.82 L 91.25,259.55 L 90.72,258.89 L 89.86,257.50 L 89.47,256.80 L 88.87,255.32 L 88.34,253.82 L 88.01,250.69 L 87.96,249.13 L 88.55,246.06 L 88.96,244.56 L 90.41,241.80 L 91.23,240.48 L 93.47,238.28 L 94.07,237.78 L 95.42,236.92 L 96.11,236.52 L 97.63,235.89 L 98.41,235.60 L 100.10,235.23 L 102.80,235.00 L 104.08,235.00 L 106.44,235.36 L 107.59,235.60 L 109.69,236.44 L 110.71,236.92 L 112.55,238.23 L 115.00,240.73 L 117.18,243.50 L 135.34,244.00 L 153.50,244.50 L 153.50,250.00 L 153.50,255.50 L 135.30,255.77 L 117.10,256.04 L 114.97,259.04 L 114.44,259.79 L 113.15,261.10 L 112.48,261.72 L 110.97,262.75 L 110.20,263.23 L 108.52,263.97 L 107.67,264.30 L 105.89,264.74 L 104.99,264.92 L 103.15,265.05 L 102.24,265.07 L 100.41,264.87 L 99.50,264.73 L 97.74,264.20 L 96.88,263.89 M 389.46,263.14 L 388.62,262.63 L 386.80,261.06 L 384.70,258.66 L 382.98,256.05 L 364.74,255.77 L 346.50,255.50 L 346.50,250.00 L 346.50,244.50 L 364.70,244.23 L 382.90,243.96 L 385.03,240.96 L 385.73,239.98 L 387.37,238.37 L 388.23,237.63 L 390.13,236.50 L 391.11,236.00 L 393.20,235.35 L 394.26,235.09 L 396.45,234.92 L 397.55,234.90 L 399.77,235.22 L 400.87,235.44 L 403.04,236.24 L 404.11,236.71 L 406.16,238.00 L 409.00,240.49 L 409.54,241.06 L 410.30,242.12 L 410.64,242.66 L 411.06,243.89 L 411.24,244.57 L 411.41,246.34 L 411.50,250.00 L 411.50,251.48 L 411.41,253.66 L 411.35,254.64 L 411.06,256.11 L 410.88,256.78 L 410.30,257.88 L 409.00,259.51 L 408.34,260.23 L 406.88,261.45 L 406.13,262.03 L 404.54,262.99 L 403.73,263.43 L 402.04,264.11 L 401.19,264.41 L 399.45,264.81 L 398.58,264.97 L 396.84,265.07 L 395.97,265.09 L 394.26,264.89 L 393.41,264.75 L 391.78,264.25 L 390.97,263.96 M 128.80,215.28 L 128.58,215.04 L 128.02,214.25 L 127.73,213.82 L 127.07,212.77 L 125.10,209.25 L 122.96,205.00 L 107.55,205.00 L 92.14,205.00 L 89.99,208.02 L 89.25,209.05 L 87.57,210.69 L 86.68,211.45 L 84.65,212.56 L 83.59,213.05 L 81.17,213.65 L 77.01,214.00 L 75.88,214.00 L 74.18,213.88 L 73.39,213.79 L 72.09,213.36 L 71.45,213.10 L 70.16,212.21 L 67.83,210.18 L 66.95,209.36 L 65.69,208.02 L 65.12,207.37 L 64.37,206.13 L 64.05,205.49 L 63.65,204.02 L 63.24,201.20 L 63.10,199.66 L 63.20,196.94 L 63.32,195.63 L 63.97,193.32 L 64.37,192.20 L 65.61,190.22 L 68.16,187.52 L 68.93,186.87 L 70.58,185.85 L 71.42,185.39 L 73.17,184.72 L 74.06,184.44 L 75.88,184.13 L 76.80,184.02 L 78.65,184.07 L 79.57,184.14 L 81.40,184.54 L 82.31,184.78 L 84.07,185.53 L 84.95,185.95 L 86.61,187.04 L 88.94,189.06 L 92.77,193.00 L 110.45,193.00 L 112.88,193.00 L 117.45,193.07 L 119.65,193.12 L 123.44,193.27 L 124.32,193.31 L 125.86,193.41 L 126.59,193.46 L 127.79,193.57 L 128.35,193.62 L 129.15,193.74 L 129.86,193.92 L 130.10,194.05 L 130.72,194.68 L 131.04,195.05 L 131.77,196.06 L 133.95,199.89 L 136.31,204.93 L 144.90,205.21 L 153.50,205.50 L 153.50,211.00 L 153.50,216.50 L 141.93,216.78 L 140.68,216.81 L 138.54,216.85 L 137.52,216.86 L 135.83,216.87 L 135.03,216.86 L 133.72,216.82 L 133.10,216.79 L 132.10,216.70 L 131.18,216.60 L 130.01,216.20 L 129.50,215.97 M 346.41,215.61 L 346.33,215.42 L 346.22,214.73 L 346.18,214.34 L 346.12,213.35 L 346.19,209.86 L 346.50,205.50 L 355.10,205.21 L 363.69,204.93 L 366.05,199.89 L 366.70,198.50 L 368.23,196.06 L 368.60,195.52 L 369.28,194.68 L 370.14,193.92 L 370.26,193.86 L 370.85,193.74 L 371.21,193.68 L 372.23,193.57 L 372.79,193.51 L 374.19,193.41 L 374.93,193.36 L 376.65,193.27 L 378.44,193.19 L 382.74,193.07 L 389.87,193.00 L 407.86,193.00 L 409.91,190.12 L 410.43,189.40 L 411.57,188.16 L 412.16,187.58 L 413.44,186.61 L 414.74,185.70 L 417.61,184.63 L 419.07,184.22 L 422.10,184.09 L 423.60,184.13 L 426.54,184.86 L 427.98,185.33 L 430.60,186.84 L 431.85,187.69 L 433.92,189.92 L 434.40,190.51 L 435.21,191.83 L 435.58,192.50 L 436.17,193.97 L 436.44,194.72 L 436.78,196.33 L 437.00,198.90 L 437.00,199.81 L 436.78,201.52 L 436.64,202.37 L 436.18,203.94 L 435.91,204.71 L 435.22,206.14 L 434.84,206.84 L 433.95,208.10 L 433.01,209.33 L 430.65,211.26 L 429.41,212.13 L 426.63,213.30 L 425.20,213.78 L 422.21,214.11 L 420.71,214.16 L 417.74,213.58 L 417.01,213.37 L 415.60,212.77 L 414.90,212.44 L 413.56,211.58 L 412.91,211.12 L 411.69,210.00 L 410.01,208.02 L 407.86,205.00 L 392.45,205.00 L 377.04,205.00 L 374.90,209.25 L 374.42,210.22 L 373.59,211.81 L 373.20,212.55 L 372.45,213.73 L 372.08,214.28 L 371.29,215.11 L 370.88,215.49 L 369.91,216.03 L 369.39,216.27 L 368.11,216.59 L 367.43,216.73 L 365.71,216.88 L 364.79,216.94 L 362.51,216.98 L 358.31,217.00 L 357.22,217.00 L 355.30,216.98 L 354.39,216.97 L 352.81,216.93 L 352.06,216.91 L 350.80,216.84 L 350.20,216.81 L 349.22,216.71 L 348.31,216.60 L 347.21,216.28 L 346.76,216.10 M 205.00,145.22 L 205.00,136.34 L 199.92,133.96 L 198.53,133.31 L 196.07,131.78 L 195.53,131.41 L 194.68,130.72 L 193.92,129.86 L 193.86,129.74 L 193.74,129.15 L 193.68,128.79 L 193.57,127.77 L 193.51,127.21 L 193.41,125.81 L 193.36,125.07 L 193.27,123.35 L 193.19,121.56 L 193.07,117.26 L 193.00,110.13 L 193.00,92.14 L 190.12,90.09 L 189.40,89.57 L 188.14,88.36 L 187.54,87.72 L 186.54,86.30 L 186.07,85.57 L 185.33,83.99 L 184.99,83.18 L 184.53,81.49 L 184.33,80.63 L 184.16,78.87 L 184.11,77.98 L 184.22,76.20 L 184.32,75.32 L 184.75,73.56 L 185.75,71.02 L 186.40,69.73 L 188.12,67.61 L 189.04,66.63 L 191.19,65.13 L 192.30,64.46 L 194.73,63.59 L 195.97,63.24 L 198.54,63.00 L 199.83,62.96 L 202.39,63.36 L 203.65,63.64 L 206.06,64.69 L 207.23,65.29 L 209.34,66.98 L 212.01,70.24 L 212.50,71.05 L 213.20,72.80 L 213.51,73.70 L 213.85,75.57 L 213.98,76.51 L 213.98,78.43 L 213.94,79.39 L 213.60,81.29 L 213.40,82.23 L 212.75,84.03 L 212.39,84.92 L 211.44,86.56 L 210.93,87.36 L 209.70,88.77 L 207.55,90.56 L 206.91,90.98 L 206.07,91.77 L 205.90,92.00 L 205.62,92.63 L 205.50,92.99 L 205.32,93.94 L 205.24,94.48 L 205.13,95.89 L 205.09,96.67 L 205.04,98.69 L 205.02,99.78 L 205.00,102.52 L 205.00,107.60 L 205.00,122.97 L 209.81,125.41 L 210.71,125.86 L 212.19,126.64 L 212.88,127.02 L 213.98,127.75 L 214.49,128.12 L 215.26,128.91 L 215.61,129.33 L 216.11,130.32 L 216.34,130.85 L 216.61,132.16 L 216.73,132.87 L 216.84,134.62 L 216.88,135.56 L 216.87,137.88 L 216.78,142.14 L 216.50,153.50 L 210.75,153.80 L 205.00,154.10 L 205.00,145.22 M 244.71,153.38 L 244.66,153.33 L 244.57,152.88 L 244.52,152.59 L 244.44,151.71 L 244.39,151.22 L 244.31,149.96 L 244.28,149.28 L 244.21,147.69 L 244.14,146.03 L 244.06,141.93 L 244.00,135.02 L 244.00,117.38 L 240.91,115.09 L 239.95,114.38 L 238.39,112.72 L 237.66,111.85 L 236.56,109.92 L 236.07,108.93 L 235.44,106.82 L 235.18,105.75 L 235.02,103.55 L 234.99,102.44 L 235.30,100.21 L 235.52,99.10 L 236.30,96.94 L 236.75,95.87 L 238.00,93.85 L 240.42,91.06 L 240.88,90.63 L 242.03,89.91 L 242.64,89.57 L 244.03,89.03 L 245.47,88.53 L 248.74,88.12 L 250.39,88.01 L 253.62,88.40 L 254.39,88.55 L 255.84,89.01 L 257.76,89.94 L 258.92,90.66 L 260.81,92.46 L 261.69,93.40 L 263.03,95.54 L 263.63,96.65 L 264.41,99.01 L 264.73,100.20 L 264.94,102.66 L 264.98,103.89 L 264.62,106.31 L 264.37,107.51 L 263.45,109.78 L 262.91,110.88 L 261.41,112.87 L 258.50,115.40 L 257.89,115.81 L 257.08,116.63 L 256.91,116.89 L 256.64,117.61 L 256.51,118.01 L 256.32,119.13 L 256.24,119.75 L 256.11,121.43 L 256.05,122.35 L 255.97,124.73 L 255.93,126.02 L 255.87,129.26 L 255.85,130.13 L 255.82,132.06 L 255.77,135.26 L 255.50,153.50 L 250.46,153.79 L 249.08,153.88 L 246.69,153.79 L 246.17,153.76 L 245.39,153.63 L 245.04,153.56 M 283.67,153.33 L 283.62,153.29 L 283.53,152.97 L 283.49,152.78 L 283.41,152.19 L 283.33,151.55 L 283.20,149.58 L 283.14,148.51 L 283.05,145.89 L 283.00,141.51 L 283.00,139.95 L 283.03,137.35 L 283.06,136.13 L 283.18,134.12 L 283.26,133.18 L 283.53,131.66 L 283.69,130.94 L 284.17,129.77 L 284.44,129.22 L 285.18,128.31 L 285.59,127.87 L 286.64,127.09 L 287.21,126.71 L 288.63,125.95 L 291.25,124.72 L 295.00,123.03 L 295.00,107.63 L 295.00,92.23 L 292.45,90.56 L 291.41,89.88 L 289.69,88.15 L 288.89,87.24 L 287.67,85.08 L 287.12,83.95 L 286.43,81.40 L 286.00,77.21 L 286.00,76.02 L 286.12,74.26 L 286.21,73.44 L 286.62,72.12 L 286.89,71.47 L 287.77,70.18 L 289.82,67.83 L 290.64,66.95 L 291.98,65.69 L 292.63,65.12 L 293.87,64.37 L 294.51,64.05 L 295.98,63.65 L 298.80,63.24 L 300.34,63.10 L 303.06,63.20 L 304.37,63.32 L 306.68,63.97 L 307.80,64.37 L 309.78,65.61 L 312.48,68.16 L 313.13,68.93 L 314.15,70.58 L 314.61,71.42 L 315.28,73.17 L 315.56,74.06 L 315.87,75.88 L 315.98,76.80 L 315.93,78.65 L 315.86,79.57 L 315.46,81.40 L 315.22,82.31 L 314.47,84.07 L 314.05,84.95 L 312.96,86.61 L 310.94,88.94 L 307.00,92.77 L 307.00,110.45 L 307.00,112.88 L 306.93,117.45 L 306.88,119.65 L 306.73,123.44 L 306.69,124.32 L 306.59,125.86 L 306.54,126.59 L 306.43,127.79 L 306.38,128.35 L 306.26,129.15 L 306.08,129.86 L 305.95,130.10 L 305.32,130.72 L 304.95,131.05 L 303.93,131.78 L 300.08,133.96 L 295.00,136.34 L 295.00,145.17 L 295.00,154.00 L 289.67,154.00 L 288.20,154.00 L 285.70,153.80 L 285.16,153.74 L 284.35,153.59 L 284.00,153.51 M 197.07,309.25 L 196.13,308.77 L 194.04,307.18 L 191.57,304.68 L 191.32,304.33 L 190.90,303.62 L 190.70,303.23 L 190.39,302.12 L 190.25,301.48 L 190.02,299.57 L 189.97,299.03 L 189.88,297.72 L 189.84,297.02 L 189.77,295.38 L 189.74,294.51 L 189.69,292.47 L 189.66,291.40 L 189.62,288.93 L 189.60,287.63 L 189.57,284.67 L 189.56,283.12 L 189.54,279.61 L 189.53,277.79 L 189.52,273.70 L 189.51,271.57 L 189.51,266.84 L 189.50,264.39 L 189.50,258.97 L 189.50,250.00 L 189.50,246.82 L 189.50,241.03 L 189.50,238.23 L 189.51,233.16 L 189.51,230.71 L 189.52,226.30 L 189.52,224.18 L 189.54,220.39 L 189.55,218.56 L 189.57,215.33 L 189.58,213.79 L 189.62,211.07 L 189.64,209.78 L 189.69,207.53 L 189.71,206.46 L 189.77,204.62 L 189.81,203.75 L 189.88,202.28 L 189.93,201.59 L 190.02,200.43 L 190.12,199.34 L 190.39,197.88 L 190.53,197.24 L 190.90,196.38 L 191.57,195.32 L 192.16,194.52 L 193.19,193.21 L 193.73,192.60 L 195.01,191.63 L 195.73,191.18 L 197.73,190.51 L 198.30,190.35 L 199.66,190.09 L 200.38,189.97 L 202.08,189.76 L 202.98,189.66 L 205.09,189.50 L 206.20,189.43 L 208.77,189.31 L 210.12,189.26 L 213.21,189.18 L 214.83,189.14 L 218.51,189.09 L 220.42,189.07 L 224.74,189.04 L 226.99,189.02 L 232.01,189.01 L 234.62,189.01 L 240.40,189.00 L 250.00,189.00 L 253.41,189.00 L 259.60,189.00 L 262.59,189.00 L 267.99,189.01 L 270.59,189.02 L 275.26,189.04 L 277.50,189.05 L 281.49,189.09 L 283.41,189.11 L 286.79,189.18 L 288.41,189.21 L 291.23,189.31 L 292.58,189.37 L 294.91,189.50 L 296.02,189.58 L 297.92,189.76 L 298.82,189.86 L 300.34,190.09 L 301.06,190.21 L 302.27,190.51 L 303.40,190.81 L 304.99,191.63 L 305.71,192.08 L 306.81,193.21 L 308.43,195.32 L 308.68,195.67 L 309.10,196.38 L 309.30,196.77 L 309.61,197.88 L 309.75,198.52 L 309.98,200.43 L 310.03,200.97 L 310.12,202.28 L 310.16,202.98 L 310.23,204.62 L 310.26,205.49 L 310.31,207.53 L 310.34,208.60 L 310.38,211.07 L 310.40,212.37 L 310.43,215.33 L 310.44,216.88 L 310.46,220.39 L 310.47,222.21 L 310.48,226.30 L 310.49,228.43 L 310.49,233.16 L 310.50,235.61 L 310.50,241.03 L 310.50,250.00 L 310.50,253.18 L 310.50,258.97 L 310.50,261.77 L 310.49,266.84 L 310.49,269.29 L 310.48,273.70 L 310.48,275.82 L 310.46,279.61 L 310.45,281.44 L 310.43,284.67 L 310.42,286.21 L 310.38,288.93 L 310.36,290.22 L 310.31,292.47 L 310.29,293.54 L 310.23,295.38 L 310.19,296.25 L 310.12,297.72 L 310.07,298.41 L 309.98,299.57 L 309.88,300.66 L 309.61,302.12 L 309.47,302.76 L 309.10,303.62 L 308.43,304.68 L 307.84,305.48 L 306.81,306.79 L 306.27,307.40 L 304.99,308.37 L 304.27,308.82 L 302.27,309.49 L 301.70,309.65 L 300.34,309.91 L 299.62,310.03 L 297.92,310.24 L 297.02,310.34 L 294.91,310.50 L 293.80,310.57 L 291.23,310.69 L 289.88,310.74 L 286.79,310.82 L 285.17,310.86 L 281.49,310.91 L 279.58,310.93 L 275.26,310.96 L 273.01,310.98 L 267.99,310.99 L 265.38,310.99 L 259.60,311.00 L 250.00,311.00 L 247.18,311.00 L 242.00,310.99 L 239.48,310.99 L 234.89,310.99 L 232.66,310.98 L 228.62,310.97 L 226.66,310.97 L 223.12,310.95 L 221.41,310.94 L 218.35,310.91 L 216.87,310.90 L 214.24,310.86 L 212.97,310.85 L 210.73,310.80 L 209.66,310.78 L 207.78,310.72 L 206.88,310.69 L 205.31,310.62 L 204.57,310.59 L 203.29,310.50 L 202.07,310.42 L 200.31,310.19 L 199.52,310.08 L 198.39,309.78 L 197.88,309.62 M 224.55,274.00 L 227.75,264.50 L 237.70,264.22 L 247.64,263.93 L 251.00,274.01 L 254.37,284.09 L 260.43,283.79 L 261.14,283.76 L 262.30,283.69 L 262.85,283.66 L 263.74,283.57 L 264.57,283.49 L 265.53,283.20 L 265.93,283.03 L 266.23,282.49 L 266.26,281.26 L 266.24,281.01 L 265.97,279.94 L 265.80,279.30 L 265.22,277.37 L 264.89,276.30 L 263.97,273.43 L 263.72,272.66 L 263.15,270.91 L 262.85,270.00 L 262.18,267.99 L 261.83,266.95 L 261.06,264.66 L 260.66,263.48 L 259.79,260.91 L 259.34,259.59 L 258.37,256.71 L 257.86,255.24 L 256.77,252.06 L 256.21,250.43 L 255.01,246.92 L 254.40,245.13 L 253.08,241.30 L 252.40,239.34 L 250.96,235.16 L 248.65,228.50 L 244.50,216.50 L 238.31,216.20 L 237.02,216.14 L 235.12,216.12 L 234.27,216.14 L 233.09,216.31 L 232.57,216.42 L 231.88,216.82 L 231.14,217.75 L 231.00,218.00 L 230.53,219.14 L 230.27,219.80 L 229.57,221.68 L 229.19,222.70 L 228.30,225.21 L 227.83,226.53 L 226.78,229.55 L 226.24,231.11 L 225.07,234.53 L 224.48,236.28 L 223.23,239.99 L 221.96,243.74 L 219.35,251.64 L 218.05,255.57 L 215.60,263.14 L 215.01,264.97 L 213.91,268.41 L 213.38,270.08 L 212.43,273.13 L 211.97,274.60 L 211.20,277.14 L 210.83,278.33 L 210.28,280.26 L 210.03,281.13 L 209.72,282.32 L 209.59,283.15 L 209.67,283.28 L 210.26,283.50 L 210.61,283.59 L 211.65,283.73 L 212.21,283.79 L 213.55,283.84 L 215.76,283.80 L 221.35,283.50 L 224.55,274.00 M 290.50,250.00 L 290.50,216.50 L 284.82,216.20 L 279.15,215.90 L 278.81,248.70 L 278.79,250.96 L 278.75,255.32 L 278.74,257.46 L 278.71,261.54 L 278.70,263.53 L 278.69,267.23 L 278.69,269.02 L 278.69,272.25 L 278.69,273.79 L 278.71,276.45 L 278.72,277.70 L 278.74,279.70 L 278.76,280.62 L 278.79,281.87 L 278.86,282.80 L 278.93,283.02 L 279.36,283.37 L 279.63,283.52 L 280.49,283.72 L 280.98,283.80 L 282.31,283.86 L 284.87,283.80 L 290.50,283.50 L 290.50,250.00 M 234.19,243.92 L 234.61,242.67 L 235.43,240.46 L 235.83,239.41 L 236.56,237.75 L 236.91,237.00 L 237.46,236.06 L 237.99,235.67 L 238.10,235.78 L 238.47,236.54 L 238.67,237.00 L 239.20,238.31 L 239.47,239.02 L 240.08,240.72 L 241.02,243.50 L 241.33,244.46 L 241.94,246.32 L 242.24,247.22 L 242.76,248.81 L 243.01,249.56 L 243.40,250.71 L 243.75,251.75 L 243.84,251.98 L 243.62,252.33 L 243.45,252.49 L 242.65,252.72 L 242.17,252.82 L 240.70,252.93 L 237.68,253.00 L 231.14,253.00 L 234.19,243.92 Z" fill="#f6d883"/>
</g>
</svg>