<svg xmlns="http://www.w3.org/2000/svg" width="225" height="225" viewBox="0 0 225 225">
<g>
<path d="M 179.88,202.29 L 180.36,202.42 L 181.35,202.73 L 181.96,202.98 L 183.68,203.50 L 184.55,203.65 L 183.57,203.68 L 180.92,203.74 L 179.52,203.77 L 176.29,203.82 L 174.60,203.84 L 170.74,203.88 L 168.72,203.89 L 164.16,203.92 L 161.78,203.93 L 156.45,203.95 L 153.68,203.96 L 147.52,203.97 L 144.33,203.97 L 137.27,203.97 L 133.62,203.98 L 125.60,203.97 L 112.42,203.97 L 107.83,203.96 L 99.41,203.96 L 95.32,203.95 L 87.86,203.94 L 84.25,203.94 L 77.69,203.92 L 74.52,203.92 L 68.81,203.89 L 66.05,203.88 L 61.12,203.86 L 58.75,203.84 L 54.54,203.81 L 52.51,203.79 L 49.47,203.75 L 51.21,203.68 L 52.36,203.60 L 54.48,203.43 L 55.20,203.32 L 55.85,203.21 L 56.07,203.16 L 56.45,203.04 L 56.52,202.98 L 57.34,202.72 L 58.33,202.59 L 59.04,202.56 L 60.61,202.50 L 61.61,202.49 L 63.74,202.49 L 65.02,202.52 L 67.71,202.59 L 69.26,202.65 L 72.50,202.78 L 74.32,202.87 L 78.09,203.07 L 80.17,203.19 L 84.47,203.45 L 86.80,203.61 L 90.36,203.76 L 92.40,203.77 L 93.22,203.73 L 94.74,203.61 L 95.27,203.51 L 96.18,203.27 L 96.37,203.11 L 97.06,202.78 L 97.80,202.62 L 98.34,202.57 L 99.54,202.48 L 100.35,202.46 L 102.12,202.44 L 103.26,202.46 L 105.69,202.52 L 107.20,202.58 L 110.41,202.72 L 112.34,202.82 L 116.42,203.03 L 118.82,203.17 L 121.29,203.31 L 122.62,203.39 L 125.34,203.56 L 126.80,203.65 L 130.21,203.78 L 132.25,203.77 L 133.09,203.73 L 134.65,203.62 L 135.20,203.53 L 136.13,203.31 L 136.30,203.17 L 137.04,202.87 L 137.87,202.72 L 138.47,202.68 L 139.80,202.60 L 140.67,202.58 L 142.56,202.57 L 143.74,202.59 L 146.25,202.65 L 147.76,202.70 L 150.95,202.83 L 152.82,202.92 L 156.75,203.12 L 159.01,203.25 L 163.73,203.52 L 166.41,203.69 L 169.99,203.82 L 172.04,203.80 L 172.89,203.74 L 174.49,203.58 L 175.11,203.44 L 176.23,203.14 L 176.61,202.94 L 179.06,202.22 M 29.85,202.59 L 29.82,202.58 L 29.00,202.21 L 28.95,202.19 M 22.73,195.91 L 22.97,196.48 L 23.49,197.56 L 23.77,197.94 L 26.06,200.24 L 27.97,201.67 L 26.72,200.94 L 26.05,200.52 L 24.95,199.61 L 24.44,199.14 L 23.63,198.03 L 23.26,197.44 L 22.70,196.01 L 22.44,195.24 L 22.33,194.66 M 202.30,196.01 L 202.05,196.78 L 201.36,198.04 L 200.98,198.63 L 200.02,199.63 L 199.51,200.11 L 198.32,200.91 L 199.60,199.86 L 200.60,198.85 L 201.01,198.29 L 201.78,197.14 L 202.08,196.47 L 202.38,195.73 M 21.86,177.47 L 22.30,179.34 L 22.44,180.36 L 22.44,180.78 L 22.39,181.56 L 22.28,181.87 L 22.03,182.46 L 21.83,182.70 L 21.53,183.40 L 21.50,179.66 L 21.50,177.94 L 21.51,176.18 M 203.01,164.96 L 203.06,165.33 L 202.91,164.55 M 22.16,164.65 L 22.03,165.14 L 22.09,164.83 L 22.19,164.36 L 22.45,163.59 L 23.56,161.63 L 23.65,161.50 M 201.86,161.95 L 202.53,163.27 L 202.67,163.63 L 202.68,163.67 L 202.51,163.25 L 201.85,161.94 M 21.33,128.15 L 21.39,129.30 L 21.44,129.97 L 21.56,131.35 L 21.64,132.16 L 21.90,134.90 L 22.04,136.48 L 22.09,137.16 L 22.23,139.66 L 22.22,140.67 L 22.14,142.58 L 22.02,143.50 L 21.73,145.38 L 21.50,146.50 L 21.35,148.13 L 21.37,148.37 L 21.36,148.29 L 21.28,147.70 L 21.18,146.33 L 21.13,145.60 L 21.08,143.89 L 21.06,142.99 L 21.05,140.84 L 21.06,137.04 L 21.08,135.74 L 21.11,133.47 L 21.13,132.38 L 21.20,130.51 L 21.23,129.61 L 21.33,128.15 M 68.29,113.28 L 76.17,113.30 L 79.79,113.31 L 78.84,113.35 L 76.87,113.43 L 76.04,113.48 L 74.48,113.58 L 73.88,113.64 L 72.81,113.76 L 72.49,113.82 L 72.00,113.96 L 72.00,114.03 L 71.75,114.50 L 71.36,114.61 L 70.46,114.74 L 69.91,114.70 L 68.80,114.54 L 68.32,114.36 L 67.46,113.94 L 67.28,113.65 L 66.26,113.32 L 65.74,113.27 M 128.10,113.30 L 126.87,113.34 L 124.57,113.42 L 123.70,113.46 L 122.16,113.56 L 121.70,113.61 L 121.00,113.71 L 121.00,113.77 L 120.39,114.44 L 119.51,114.69 L 118.99,114.70 L 117.92,114.67 L 117.46,114.54 L 116.63,114.20 L 116.45,113.92 L 115.83,113.71 L 114.96,113.59 L 114.33,113.54 L 112.94,113.43 L 112.08,113.39 L 110.25,113.30 L 110.09,113.30 L 115.78,113.29 L 120.35,113.28 L 129.42,113.24 L 130.75,113.24 M 38.07,112.89 L 38.32,112.91 L 39.20,112.95 L 39.71,112.98 L 41.06,113.02 L 41.80,113.04 L 43.60,113.07 L 44.55,113.09 L 46.76,113.12 L 47.92,113.14 L 50.51,113.17 L 51.84,113.18 L 54.78,113.21 L 56.28,113.22 L 57.02,113.22 L 56.41,113.25 L 51.83,113.39 L 48.59,113.42 L 46.99,113.39 L 43.86,113.32 L 42.47,113.25 L 39.83,113.09 L 38.83,112.98 L 37.93,112.87 M 202.53,111.31 L 201.33,113.29 L 202.60,111.10 M 185.85,112.74 L 184.12,112.83 L 183.15,112.87 L 181.11,112.95 L 179.96,112.97 L 177.59,113.02 L 176.26,113.04 L 173.50,113.07 L 171.98,113.08 L 168.82,113.10 L 167.08,113.10 L 163.49,113.10 L 161.52,113.10 L 157.70,113.09 L 158.94,113.08 L 166.16,113.01 L 167.89,113.00 L 171.15,112.96 L 172.75,112.95 L 175.70,112.91 L 177.13,112.89 L 179.74,112.85 L 181.00,112.83 L 183.24,112.79 L 184.30,112.77 L 186.01,112.73 M 202.82,110.43 L 202.69,110.82 L 202.83,110.38 M 196.43,106.71 L 196.36,107.19 L 196.23,108.09 L 196.16,108.41 L 196.02,108.97 L 195.94,109.11 L 195.06,110.37 L 194.90,110.51 L 195.18,110.16 L 195.49,109.69 L 195.97,108.42 L 196.19,107.72 L 196.50,105.92 L 196.52,105.75 M 28.01,96.77 L 28.03,98.66 L 28.06,100.49 L 28.20,103.44 L 28.29,104.81 L 28.62,106.94 L 28.81,107.92 L 28.96,108.30 L 28.81,107.96 L 28.62,106.99 L 28.28,104.86 L 28.19,103.50 L 28.05,100.55 L 28.03,98.71 L 28.01,96.81 L 28.00,95.75 L 28.00,93.58 L 28.00,93.57 L 28.01,95.73 M 182.92,26.17 L 183.80,27.50 L 184.26,28.21 L 185.28,29.91 L 185.82,30.80 L 186.99,32.86 L 187.60,33.94 L 188.93,36.37 L 189.62,37.63 L 191.10,40.42 L 193.50,45.04 L 203.50,64.50 L 203.50,88.91 L 203.50,91.45 L 203.50,92.68 L 203.49,94.91 L 203.49,95.99 L 203.48,97.94 L 203.47,98.88 L 203.45,100.57 L 203.44,101.51 L 203.44,100.24 L 203.40,96.91 L 203.36,94.88 L 203.32,92.79 L 203.30,91.64 L 203.24,89.29 L 203.21,88.00 L 203.18,85.50 L 203.18,83.30 L 203.19,82.03 L 203.23,76.61 L 203.27,74.00 L 203.44,64.50 L 193.47,45.04 L 191.07,40.41 L 189.59,37.61 L 188.91,36.35 L 187.58,33.92 L 186.98,32.85 L 185.80,30.79 L 185.27,29.90 L 184.25,28.20 L 183.79,27.50 L 182.92,26.17 L 182.73,25.91 Z" fill="#f7d883"/>
<path d="M 28.93,202.18 L 28.03,201.72 L 26.06,200.24 L 23.77,197.94 L 23.49,197.56 L 22.97,196.48 L 22.73,195.91 L 22.29,194.54 L 21.88,193.12 L 21.35,189.90 L 21.15,188.31 L 21.14,185.47 L 21.17,184.83 L 21.36,183.79 L 21.83,182.70 L 22.03,182.46 L 22.28,181.87 L 22.39,181.56 L 22.44,180.78 L 22.44,180.36 L 22.30,179.34 L 21.86,177.47 L 21.50,176.16 L 21.19,173.22 L 21.11,171.74 L 21.31,168.76 L 21.48,167.29 L 22.16,164.65 L 23.66,161.50 L 25.62,158.80 L 23.25,154.15 L 22.83,153.33 L 22.21,151.87 L 21.93,151.16 L 21.58,149.89 L 21.44,149.27 L 21.35,148.13 L 21.50,146.50 L 21.73,145.38 L 22.02,143.50 L 22.14,142.58 L 22.22,140.67 L 22.23,139.66 L 22.09,137.16 L 22.04,136.48 L 21.90,134.90 L 21.64,132.16 L 21.56,131.35 L 21.44,129.97 L 21.39,129.30 L 21.33,128.15 L 21.29,127.05 L 21.41,125.30 L 21.52,124.46 L 21.98,122.91 L 23.10,120.29 L 23.63,119.19 L 24.30,117.67 L 24.58,116.99 L 24.75,115.98 L 24.78,115.49 L 24.48,114.56 L 23.53,112.78 L 23.15,112.13 L 22.61,110.46 L 22.49,109.98 L 22.30,108.75 L 22.21,108.09 L 22.07,106.42 L 22.01,105.51 L 21.92,103.27 L 21.88,102.07 L 21.82,99.13 L 21.80,97.57 L 21.77,93.81 L 21.75,87.12 L 21.74,64.44 L 31.62,45.01 L 32.46,43.37 L 34.01,40.37 L 34.76,38.92 L 36.16,36.30 L 36.83,35.04 L 38.07,32.80 L 38.67,31.73 L 39.76,29.86 L 40.29,28.97 L 41.23,27.47 L 41.68,26.77 L 42.47,25.63 L 42.85,25.10 L 43.50,24.32 L 44.32,23.54 L 44.67,23.29 L 45.42,22.88 L 45.84,22.68 L 47.12,22.38 L 47.49,22.30 L 48.43,22.18 L 48.94,22.12 L 50.19,22.01 L 50.85,21.96 L 52.47,21.88 L 53.33,21.84 L 55.38,21.77 L 56.46,21.74 L 59.01,21.68 L 60.35,21.66 L 63.45,21.62 L 65.08,21.60 L 68.80,21.57 L 70.75,21.56 L 75.15,21.54 L 77.45,21.53 L 82.61,21.52 L 85.29,21.51 L 91.25,21.51 L 94.34,21.50 L 101.19,21.50 L 112.50,21.50 L 116.51,21.50 L 123.81,21.50 L 127.35,21.50 L 133.75,21.51 L 136.84,21.51 L 142.39,21.52 L 145.07,21.52 L 149.84,21.54 L 152.14,21.55 L 156.20,21.57 L 158.15,21.58 L 161.55,21.62 L 163.18,21.64 L 165.99,21.68 L 167.33,21.71 L 169.62,21.77 L 170.71,21.80 L 172.53,21.88 L 173.39,21.92 L 174.81,22.01 L 175.48,22.06 L 176.56,22.18 L 177.07,22.24 L 177.88,22.38 L 178.63,22.52 L 179.58,22.88 L 180.68,23.54 L 180.91,23.71 L 181.50,24.32 L 181.81,24.67 L 182.53,25.64 L 182.92,26.17 L 183.79,27.50 L 184.25,28.20 L 185.27,29.90 L 185.80,30.79 L 186.98,32.85 L 187.58,33.92 L 188.91,36.35 L 189.59,37.61 L 191.07,40.41 L 193.47,45.04 L 203.44,64.50 L 203.27,74.00 L 203.23,76.61 L 203.19,82.03 L 203.18,83.30 L 203.18,85.50 L 203.21,88.00 L 203.24,89.29 L 203.30,91.64 L 203.32,92.79 L 203.36,94.88 L 203.40,96.91 L 203.44,100.24 L 203.44,101.80 L 203.41,104.31 L 203.39,105.48 L 203.28,107.32 L 203.22,108.17 L 203.02,109.50 L 202.91,110.11 L 202.61,111.08 L 201.29,113.37 L 199.07,116.18 L 201.29,119.17 L 201.80,119.87 L 202.50,121.20 L 202.65,121.57 L 202.89,122.43 L 203.00,122.89 L 203.16,124.02 L 203.24,124.62 L 203.34,126.14 L 203.39,126.95 L 203.44,128.95 L 203.47,130.03 L 203.49,132.64 L 203.50,137.35 L 203.50,139.09 L 203.49,142.02 L 203.48,143.40 L 203.44,145.68 L 203.42,146.75 L 203.34,148.50 L 203.30,149.31 L 203.17,150.63 L 203.09,151.24 L 202.90,152.23 L 202.80,152.69 L 202.53,153.47 L 201.37,155.47 L 199.23,158.40 L 201.37,161.28 L 201.84,161.93 L 202.51,163.25 L 202.81,163.98 L 203.19,166.02 L 203.27,166.61 L 203.40,168.05 L 203.46,168.82 L 203.55,170.69 L 203.59,171.69 L 203.65,174.08 L 203.74,178.35 L 203.77,180.30 L 203.77,183.66 L 203.76,185.26 L 203.67,187.99 L 203.60,189.28 L 203.37,191.46 L 203.24,192.50 L 202.86,194.24 L 202.65,195.07 L 202.08,196.47 L 201.78,197.14 L 201.01,198.29 L 200.60,198.85 L 199.60,199.86 L 197.82,201.32 L 197.40,201.63 L 196.34,202.17 L 195.78,202.43 L 194.50,202.86 L 193.17,203.26 L 190.16,203.71 L 188.64,203.87 L 185.69,203.78 L 184.98,203.73 L 183.68,203.50 L 181.96,202.98 L 181.35,202.73 L 180.36,202.42 L 179.88,202.29 L 179.06,202.22 L 176.61,202.94 L 176.23,203.14 L 175.11,203.44 L 174.49,203.58 L 172.89,203.74 L 172.04,203.80 L 169.99,203.82 L 166.41,203.69 L 163.73,203.52 L 159.01,203.25 L 156.75,203.12 L 152.82,202.92 L 150.95,202.83 L 147.76,202.70 L 146.25,202.65 L 143.74,202.59 L 142.56,202.57 L 140.67,202.58 L 139.80,202.60 L 138.47,202.68 L 137.87,202.72 L 137.04,202.87 L 136.30,203.17 L 136.13,203.31 L 135.20,203.53 L 134.65,203.62 L 133.09,203.73 L 132.25,203.77 L 130.21,203.78 L 126.80,203.65 L 125.34,203.56 L 122.62,203.39 L 121.29,203.31 L 118.82,203.17 L 116.42,203.03 L 112.34,202.82 L 110.41,202.72 L 107.20,202.58 L 105.69,202.52 L 103.26,202.46 L 102.12,202.44 L 100.35,202.46 L 99.54,202.48 L 98.34,202.57 L 97.80,202.62 L 97.06,202.78 L 96.37,203.11 L 96.18,203.27 L 95.27,203.51 L 94.74,203.61 L 93.22,203.73 L 92.40,203.77 L 90.36,203.76 L 86.80,203.61 L 84.47,203.45 L 80.17,203.19 L 78.09,203.07 L 74.32,202.87 L 72.50,202.78 L 69.26,202.65 L 67.71,202.59 L 65.02,202.52 L 63.74,202.49 L 61.61,202.49 L 60.61,202.50 L 59.04,202.56 L 58.33,202.59 L 57.34,202.72 L 56.52,202.98 L 56.45,203.04 L 56.07,203.16 L 55.85,203.21 L 55.20,203.32 L 54.48,203.43 L 52.36,203.60 L 51.21,203.68 L 48.44,203.79 L 43.85,203.86 L 42.73,203.86 L 40.75,203.84 L 39.80,203.82 L 38.11,203.78 L 36.49,203.72 L 34.00,203.50 L 32.85,203.37 L 31.07,202.98 L 30.25,202.77 M 194.55,194.55 L 195.13,193.96 L 195.92,192.89 L 196.26,192.30 L 196.66,190.61 L 196.74,190.10 L 196.84,188.83 L 196.89,188.14 L 196.95,186.42 L 196.97,185.49 L 196.99,183.21 L 197.00,179.05 L 197.00,177.58 L 196.99,175.11 L 196.98,173.94 L 196.94,172.01 L 196.92,171.10 L 196.84,169.61 L 196.80,168.92 L 196.67,167.80 L 196.54,166.77 L 196.07,165.46 L 195.00,164.00 L 194.75,163.75 L 194.14,163.35 L 193.76,163.16 L 192.41,162.86 L 192.00,162.79 L 190.94,162.66 L 190.36,162.61 L 188.91,162.50 L 188.12,162.45 L 186.20,162.37 L 185.17,162.33 L 182.70,162.26 L 181.39,162.23 L 178.30,162.18 L 176.67,162.15 L 172.88,162.11 L 170.90,162.10 L 166.33,162.07 L 163.94,162.05 L 158.53,162.04 L 155.71,162.03 L 149.36,162.02 L 146.07,162.01 L 138.72,162.01 L 136.82,162.00 L 132.81,162.00 L 130.77,162.00 L 126.48,162.00 L 124.30,162.00 L 119.73,162.00 L 112.54,162.00 L 32.08,162.00 L 30.04,164.19 L 29.58,164.68 L 28.95,165.74 L 28.67,166.34 L 28.33,168.12 L 28.26,168.63 L 28.16,169.91 L 28.12,170.60 L 28.06,172.28 L 28.04,173.18 L 28.01,175.35 L 28.00,179.23 L 28.00,180.77 L 28.01,183.33 L 28.02,184.53 L 28.05,186.49 L 28.08,187.41 L 28.16,188.87 L 28.20,189.55 L 28.35,190.63 L 28.51,191.62 L 29.08,192.89 L 30.45,194.55 L 32.91,197.00 L 112.50,197.00 L 192.09,197.00 L 194.55,194.55 M 191.74,154.51 L 192.29,154.37 L 193.25,153.98 L 193.70,153.75 L 194.48,153.14 L 194.84,152.80 L 195.44,151.91 L 195.73,151.42 L 196.18,150.21 L 196.39,149.55 L 196.70,147.96 L 196.85,147.11 L 197.04,145.08 L 197.13,144.01 L 197.23,141.49 L 197.28,137.12 L 197.27,135.52 L 197.23,132.78 L 197.20,131.49 L 197.08,129.31 L 197.02,128.28 L 196.81,126.57 L 196.69,125.77 L 196.37,124.47 L 196.19,123.87 L 195.73,122.89 L 195.48,122.44 L 194.86,121.72 L 192.29,120.14 L 192.16,120.09 L 191.67,119.99 L 191.37,119.95 L 190.54,119.86 L 190.08,119.82 L 188.89,119.74 L 188.25,119.70 L 186.69,119.63 L 185.87,119.60 L 183.93,119.54 L 182.91,119.51 L 180.59,119.45 L 179.37,119.43 L 176.64,119.38 L 175.22,119.36 L 172.07,119.32 L 170.44,119.31 L 166.85,119.28 L 165.01,119.26 L 160.97,119.24 L 158.90,119.23 L 154.41,119.22 L 152.11,119.21 L 147.15,119.20 L 144.61,119.20 L 139.16,119.20 L 136.38,119.20 L 130.43,119.21 L 127.39,119.21 L 120.94,119.23 L 110.66,119.25 L 31.82,119.50 L 29.91,121.86 L 29.50,122.37 L 28.91,123.53 L 28.66,124.18 L 28.33,126.04 L 28.27,126.58 L 28.17,127.88 L 28.12,128.57 L 28.07,130.24 L 28.04,131.13 L 28.01,133.25 L 28.00,137.00 L 28.00,138.11 L 28.00,140.12 L 28.00,141.10 L 28.02,142.85 L 28.04,144.54 L 28.22,147.22 L 28.34,148.46 L 28.82,150.34 L 29.11,151.19 L 30.05,152.42 L 30.59,152.97 L 32.13,153.71 L 32.98,154.02 L 35.27,154.41 L 36.52,154.58 L 39.71,154.77 L 40.57,154.81 L 42.48,154.89 L 45.66,155.00 L 46.21,155.02 L 47.63,155.06 L 48.39,155.08 L 50.20,155.11 L 51.15,155.12 L 53.31,155.15 L 54.43,155.17 L 56.92,155.19 L 58.21,155.20 L 61.00,155.23 L 62.43,155.24 L 65.49,155.25 L 68.62,155.27 L 75.57,155.29 L 79.15,155.30 L 86.83,155.31 L 90.74,155.32 L 98.92,155.31 L 107.18,155.31 L 124.26,155.26 L 128.50,155.25 L 136.84,155.21 L 140.97,155.19 L 148.91,155.15 L 152.81,155.12 L 160.13,155.07 L 163.69,155.04 L 170.17,154.98 L 171.72,154.96 L 174.64,154.93 L 176.06,154.91 L 178.68,154.87 L 179.96,154.86 L 182.27,154.82 L 183.38,154.80 L 185.34,154.76 L 186.28,154.74 L 187.87,154.70 L 188.62,154.68 L 189.81,154.64 L 190.35,154.62 L 191.11,154.57 L 191.43,154.55 M 72.00,114.03 L 72.00,113.96 L 72.49,113.82 L 72.81,113.76 L 73.88,113.64 L 74.48,113.58 L 76.04,113.48 L 76.87,113.43 L 78.84,113.35 L 79.87,113.31 L 82.16,113.24 L 83.34,113.21 L 85.87,113.16 L 88.45,113.12 L 93.95,113.08 L 96.71,113.08 L 102.06,113.12 L 103.36,113.14 L 105.82,113.18 L 107.01,113.21 L 109.20,113.27 L 110.25,113.30 L 112.08,113.39 L 112.94,113.43 L 114.33,113.54 L 114.96,113.59 L 115.83,113.71 L 116.45,113.92 L 116.63,114.20 L 117.46,114.54 L 117.92,114.67 L 118.99,114.70 L 119.51,114.69 L 120.39,114.44 L 121.00,113.77 L 121.00,113.71 L 121.70,113.61 L 122.16,113.56 L 123.70,113.46 L 124.57,113.42 L 126.87,113.34 L 128.10,113.30 L 131.06,113.23 L 132.61,113.20 L 136.13,113.15 L 137.96,113.13 L 141.95,113.10 L 144.00,113.08 L 148.37,113.07 L 155.25,113.08 L 157.46,113.09 L 161.52,113.10 L 163.49,113.10 L 167.08,113.10 L 168.82,113.10 L 171.98,113.08 L 173.50,113.07 L 176.26,113.04 L 177.59,113.02 L 179.96,112.97 L 181.11,112.95 L 183.15,112.87 L 184.12,112.83 L 185.85,112.74 L 186.67,112.68 L 188.11,112.56 L 189.48,112.42 L 191.51,112.06 L 192.42,111.86 L 193.71,111.34 L 194.28,111.06 L 195.06,110.37 L 195.94,109.11 L 196.02,108.97 L 196.16,108.41 L 196.23,108.09 L 196.36,107.19 L 196.43,106.71 L 196.54,105.51 L 196.60,104.88 L 196.70,103.43 L 196.79,101.91 L 196.92,98.24 L 197.00,92.07 L 197.00,77.00 L 112.50,77.00 L 28.00,77.00 L 28.00,92.39 L 28.00,93.58 L 28.00,95.75 L 28.01,96.81 L 28.03,98.71 L 28.05,100.55 L 28.19,103.50 L 28.28,104.86 L 28.62,106.99 L 28.81,107.96 L 29.42,109.41 L 29.76,110.06 L 30.72,110.99 L 31.25,111.40 L 32.64,111.96 L 33.40,112.20 L 35.31,112.54 L 38.83,112.98 L 39.83,113.09 L 42.47,113.25 L 43.86,113.32 L 46.99,113.39 L 48.59,113.42 L 51.83,113.39 L 56.41,113.25 L 57.86,113.18 L 60.51,113.12 L 61.78,113.10 L 63.90,113.14 L 64.88,113.18 L 66.26,113.32 L 67.28,113.65 L 67.46,113.94 L 68.32,114.36 L 68.80,114.54 L 69.91,114.70 L 70.46,114.74 L 71.36,114.61 L 71.75,114.50 M 196.90,69.43 L 196.96,69.37 L 196.84,68.85 L 196.75,68.53 L 196.37,67.52 L 196.15,66.96 L 195.53,65.53 L 195.20,64.78 L 194.38,63.01 L 193.96,62.09 L 192.99,60.05 L 192.49,59.00 L 191.39,56.76 L 190.27,54.49 L 187.83,49.64 L 186.59,47.21 L 184.12,42.48 L 182.91,40.19 L 180.71,36.15 L 180.19,35.21 L 179.26,33.57 L 178.81,32.78 L 178.04,31.51 L 177.68,30.92 L 177.11,30.08 L 176.53,29.40 L 176.32,29.25 L 175.42,29.01 L 174.87,28.89 L 173.09,28.69 L 172.58,28.64 L 171.35,28.56 L 170.70,28.52 L 169.16,28.45 L 168.36,28.41 L 166.49,28.35 L 165.51,28.32 L 163.27,28.26 L 162.11,28.24 L 159.48,28.19 L 158.11,28.17 L 155.05,28.14 L 153.47,28.12 L 149.95,28.09 L 148.13,28.08 L 144.13,28.06 L 142.06,28.05 L 137.54,28.03 L 135.21,28.02 L 130.14,28.01 L 127.53,28.01 L 121.88,28.00 L 112.71,28.00 L 110.14,28.00 L 105.24,28.00 L 102.83,28.01 L 98.23,28.02 L 95.97,28.02 L 91.68,28.04 L 89.58,28.05 L 85.60,28.07 L 83.65,28.08 L 79.98,28.10 L 78.18,28.12 L 74.82,28.15 L 73.18,28.16 L 70.13,28.20 L 68.64,28.22 L 65.90,28.26 L 64.57,28.28 L 62.14,28.33 L 60.96,28.36 L 58.84,28.41 L 57.82,28.44 L 56.02,28.49 L 55.15,28.52 L 53.66,28.59 L 52.95,28.62 L 51.77,28.69 L 51.21,28.73 L 50.35,28.80 L 49.95,28.84 L 49.40,28.92 L 48.92,29.04 L 48.81,29.10 L 48.39,29.62 L 48.16,29.94 L 47.52,30.93 L 47.17,31.48 L 46.34,32.87 L 45.90,33.61 L 44.91,35.33 L 43.89,37.13 L 41.53,41.45 L 40.32,43.68 L 37.80,48.44 L 36.55,50.83 L 34.16,55.51 L 33.00,57.78 L 31.02,61.82 L 30.57,62.77 L 29.78,64.45 L 29.41,65.24 L 28.83,66.57 L 28.56,67.19 L 28.22,68.10 L 28.00,68.94 L 28.00,69.07 L 28.37,69.33 L 28.62,69.46 L 29.40,69.70 L 29.83,69.81 L 30.91,70.00 L 32.75,70.20 L 33.00,70.21 L 33.92,70.24 L 34.45,70.25 L 35.90,70.28 L 36.68,70.29 L 38.63,70.31 L 39.66,70.32 L 42.06,70.33 L 43.31,70.34 L 46.14,70.35 L 47.60,70.35 L 50.80,70.36 L 52.45,70.36 L 56.00,70.37 L 57.81,70.37 L 61.67,70.37 L 65.60,70.37 L 74.23,70.35 L 78.65,70.35 L 88.03,70.32 L 92.79,70.31 L 102.64,70.27 L 107.59,70.25 L 117.60,70.21 L 122.60,70.19 L 132.47,70.13 L 137.37,70.11 L 146.82,70.05 L 151.46,70.02 L 160.19,69.95 L 162.31,69.94 L 166.37,69.90 L 168.36,69.89 L 172.14,69.85 L 173.99,69.83 L 177.45,69.80 L 179.13,69.78 L 182.23,69.75 L 183.73,69.73 L 186.44,69.69 L 187.74,69.68 L 190.02,69.64 L 191.10,69.62 L 192.91,69.59 L 193.75,69.57 L 195.06,69.53 L 195.64,69.52 L 196.41,69.48 L 196.72,69.46 M 168.39,189.02 L 167.62,188.71 L 166.28,187.82 L 165.64,187.34 L 164.57,186.16 L 164.08,185.53 L 163.29,184.13 L 162.94,183.41 L 162.47,181.87 L 162.27,181.09 L 162.13,179.48 L 162.10,178.67 L 162.30,177.07 L 162.45,176.28 L 163.01,174.76 L 164.29,172.65 L 164.72,172.12 L 165.72,171.22 L 166.24,170.81 L 167.39,170.15 L 168.57,169.55 L 171.19,169.09 L 172.51,168.98 L 175.16,169.51 L 175.81,169.70 L 177.04,170.29 L 178.76,171.45 L 179.52,172.09 L 180.70,173.53 L 181.23,174.27 L 181.97,175.86 L 182.28,176.67 L 182.58,178.33 L 182.68,179.16 L 182.57,180.81 L 182.46,181.63 L 181.93,183.19 L 181.62,183.96 L 180.69,185.36 L 180.18,186.03 L 178.87,187.19 L 176.47,188.58 L 175.51,188.98 L 174.02,189.49 L 173.32,189.71 L 172.13,189.86 L 171.55,189.89 L 170.39,189.69 L 169.79,189.55 M 175.50,182.00 L 175.96,181.49 L 176.45,180.42 L 176.63,179.88 L 176.62,178.83 L 176.56,178.31 L 176.15,177.35 L 175.91,176.89 L 175.19,176.12 L 174.80,175.76 L 173.87,175.25 L 173.39,175.04 L 172.34,174.89 L 171.81,174.87 L 170.74,175.17 L 169.20,176.20 L 168.76,176.64 L 168.26,177.83 L 168.07,178.45 L 168.06,179.78 L 168.11,180.44 L 168.57,181.62 L 169.75,182.92 L 170.39,183.29 L 171.45,183.72 L 171.95,183.88 L 172.83,183.86 L 173.26,183.79 L 174.11,183.29 L 174.55,182.99 M 43.24,184.84 L 43.02,184.62 L 42.66,183.92 L 42.50,183.54 L 42.27,182.59 L 42.07,181.60 L 42.03,179.25 L 42.06,178.07 L 42.47,175.88 L 42.60,175.38 L 42.94,174.53 L 43.57,173.57 L 44.00,173.15 L 44.79,172.58 L 45.18,172.35 L 45.88,172.16 L 46.22,172.11 L 46.83,172.27 L 47.12,172.40 L 47.62,172.90 L 47.85,173.20 L 48.23,174.03 L 48.40,174.49 L 48.64,175.63 L 48.74,176.24 L 48.84,177.69 L 48.81,180.17 L 48.74,181.28 L 48.57,182.89 L 48.47,183.61 L 48.18,184.56 L 48.01,184.97 L 47.52,185.44 L 46.49,185.79 L 45.94,185.87 L 44.70,185.63 L 44.11,185.46 M 60.67,185.33 L 60.52,185.19 L 60.31,184.53 L 60.21,184.15 L 60.09,183.13 L 59.99,182.04 L 60.03,179.31 L 60.09,177.94 L 60.42,175.46 L 60.52,174.91 L 60.77,174.04 L 61.20,173.20 L 61.60,172.80 L 62.26,172.33 L 62.59,172.14 L 63.20,172.09 L 63.51,172.11 L 64.19,172.50 L 65.43,173.57 L 65.66,173.81 L 66.05,174.52 L 66.24,174.91 L 66.52,175.87 L 66.78,176.87 L 66.97,179.23 L 67.01,180.41 L 66.74,182.57 L 66.65,183.06 L 66.36,183.89 L 65.80,184.80 L 65.47,185.13 L 64.60,185.58 L 64.14,185.78 L 63.14,185.95 L 62.65,186.01 L 61.73,185.88 L 61.30,185.78 M 78.24,184.84 L 78.02,184.62 L 77.66,183.92 L 77.50,183.54 L 77.27,182.59 L 77.07,181.60 L 77.03,179.25 L 77.06,178.07 L 77.47,175.88 L 77.60,175.38 L 77.94,174.53 L 78.57,173.57 L 79.00,173.15 L 79.79,172.58 L 80.18,172.35 L 80.88,172.16 L 81.22,172.11 L 81.83,172.27 L 82.12,172.40 L 82.62,172.90 L 82.85,173.20 L 83.23,174.03 L 83.40,174.49 L 83.64,175.63 L 83.74,176.24 L 83.84,177.69 L 83.81,180.17 L 83.74,181.28 L 83.57,182.89 L 83.47,183.61 L 83.18,184.56 L 83.01,184.97 L 82.52,185.44 L 81.49,185.79 L 80.94,185.87 L 79.70,185.63 L 79.11,185.46 M 95.68,185.25 L 95.62,185.15 L 95.50,184.55 L 95.44,184.20 L 95.34,183.21 L 95.14,179.36 L 95.11,177.85 L 95.38,175.57 L 95.56,174.55 L 96.26,173.24 L 96.66,172.71 L 97.78,172.37 L 99.94,172.97 L 100.34,173.18 L 100.93,173.71 L 101.20,174.00 L 101.57,174.75 L 101.73,175.17 L 101.90,176.28 L 102.00,178.45 L 102.00,179.66 L 101.82,182.01 L 101.77,182.55 L 101.63,183.46 L 101.39,184.42 L 101.24,184.82 L 100.36,185.42 L 99.86,185.68 L 98.61,185.95 L 97.99,186.04 L 96.83,185.93 L 96.30,185.82 M 113.71,185.38 L 113.61,185.28 L 113.43,184.65 L 113.35,184.27 L 113.21,183.19 L 113.00,178.94 L 113.00,178.20 L 113.06,176.92 L 113.10,176.31 L 113.24,175.28 L 113.40,174.31 L 114.01,173.09 L 114.37,172.60 L 115.42,172.26 L 117.54,172.66 L 117.85,172.77 L 118.28,173.23 L 118.47,173.50 L 118.71,174.39 L 118.80,174.90 L 118.87,176.37 L 118.79,179.37 L 118.73,180.70 L 118.57,182.57 L 118.48,183.40 L 118.19,184.47 L 118.03,184.93 L 117.53,185.43 L 116.46,185.79 L 115.90,185.87 L 114.81,185.79 L 114.31,185.71 M 128.16,182.12 L 127.79,181.89 L 127.32,180.82 L 127.16,178.89 L 127.25,178.29 L 127.56,177.51 L 127.69,177.35 L 128.10,177.09 L 128.34,176.97 L 129.05,176.80 L 129.46,176.73 L 130.57,176.63 L 131.19,176.59 L 132.80,176.54 L 133.68,176.52 L 135.90,176.51 L 140.00,176.50 L 141.82,176.50 L 144.93,176.55 L 146.39,176.59 L 148.81,176.72 L 149.93,176.80 L 151.70,177.03 L 152.50,177.15 L 153.66,177.49 L 154.16,177.68 L 154.75,178.15 L 154.98,178.40 L 155.04,179.01 L 155.00,179.33 L 154.58,180.09 L 153.43,181.43 L 153.12,181.74 L 152.16,182.20 L 151.59,182.40 L 149.90,182.68 L 149.42,182.74 L 148.27,182.83 L 147.66,182.87 L 146.23,182.92 L 145.47,182.95 L 143.71,182.97 L 140.68,182.98 L 139.14,182.98 L 136.23,182.91 L 134.83,182.87 L 132.39,182.72 L 131.26,182.65 L 129.56,182.45 L 129.20,182.40 L 128.66,182.29 L 128.42,182.24 M 168.38,146.56 L 167.10,146.01 L 165.13,144.44 L 164.25,143.60 L 163.05,141.63 L 162.54,140.60 L 162.07,138.41 L 161.92,137.31 L 162.14,135.11 L 162.33,134.03 L 163.20,132.01 L 163.72,131.05 L 165.21,129.43 L 166.03,128.69 L 168.11,127.66 L 171.85,127.00 L 173.26,127.00 L 175.73,127.63 L 176.89,128.04 L 178.81,129.35 L 179.70,130.07 L 181.03,131.86 L 181.62,132.79 L 182.31,134.88 L 182.57,135.94 L 182.58,138.12 L 182.49,139.21 L 181.77,141.31 L 181.32,142.33 L 179.82,144.15 L 176.64,146.37 L 175.62,146.85 L 174.19,147.46 L 173.54,147.71 L 172.48,147.85 L 171.96,147.86 L 170.79,147.54 L 170.14,147.33 M 176.00,139.00 L 176.38,138.29 L 176.57,137.00 L 176.00,135.00 L 175.76,134.56 L 175.11,133.91 L 174.77,133.62 L 173.95,133.26 L 173.53,133.12 L 172.64,133.03 L 172.19,133.01 L 171.29,133.18 L 170.85,133.29 L 170.03,133.68 L 169.64,133.90 L 168.98,134.50 L 168.68,134.83 L 168.27,135.62 L 168.00,137.00 L 168.00,137.50 L 168.27,138.38 L 168.44,138.80 L 168.98,139.50 L 169.29,139.82 L 170.03,140.32 L 170.42,140.55 L 171.29,140.82 L 171.73,140.93 L 172.64,140.97 L 173.09,140.96 L 173.95,140.74 L 174.37,140.59 L 175.11,140.09 L 175.46,139.80 M 43.24,142.84 L 43.01,142.61 L 42.65,141.87 L 42.49,141.46 L 42.25,140.43 L 42.05,139.35 L 42.00,136.80 L 42.04,135.52 L 42.46,133.21 L 42.59,132.68 L 42.94,131.83 L 43.58,130.93 L 43.96,130.62 L 44.66,130.23 L 45.00,130.07 L 45.62,129.99 L 45.92,129.99 L 46.46,130.21 L 46.72,130.35 L 47.17,130.86 L 47.38,131.15 L 47.74,131.94 L 47.90,132.37 L 48.16,133.43 L 48.27,134.00 L 48.41,135.33 L 48.50,137.61 L 48.50,138.89 L 48.43,140.71 L 48.38,141.51 L 48.15,142.53 L 48.01,142.97 L 47.54,143.44 L 46.49,143.79 L 45.94,143.87 L 44.70,143.63 L 44.11,143.46 M 61.25,143.34 L 61.01,143.24 L 60.64,142.65 L 60.46,142.30 L 60.22,141.30 L 60.01,140.23 L 59.96,137.46 L 60.00,136.06 L 60.43,133.45 L 60.57,132.86 L 60.93,131.90 L 61.58,130.93 L 61.92,130.65 L 62.56,130.31 L 62.88,130.17 L 63.48,130.10 L 64.06,130.09 L 65.06,130.83 L 65.53,131.32 L 66.22,132.98 L 66.81,136.43 L 66.86,137.21 L 66.85,138.58 L 66.83,139.23 L 66.68,140.36 L 66.59,140.89 L 66.30,141.78 L 66.14,142.19 L 65.71,142.83 L 65.48,143.12 L 64.91,143.51 L 64.60,143.68 L 63.90,143.83 L 63.52,143.87 L 62.68,143.77 L 62.23,143.69 M 78.07,142.13 L 77.72,141.47 L 77.26,140.07 L 77.07,139.36 L 76.90,137.91 L 76.86,137.19 L 76.96,135.79 L 77.04,135.10 L 77.38,133.84 L 77.58,133.23 L 78.13,132.20 L 78.43,131.72 L 79.16,131.00 L 79.54,130.69 L 80.42,130.37 L 81.87,130.46 L 82.38,130.62 L 83.06,131.01 L 83.36,131.25 L 83.69,132.03 L 83.82,132.50 L 83.89,133.98 L 83.90,134.41 L 83.87,135.45 L 83.80,137.33 L 83.76,138.02 L 83.69,139.17 L 83.66,139.71 L 83.57,140.61 L 83.48,141.46 L 83.18,142.52 L 83.01,142.97 L 82.48,143.45 L 81.32,143.81 L 80.63,143.91 L 79.43,143.51 L 78.87,143.23 M 96.25,143.34 L 96.01,143.24 L 95.64,142.65 L 95.46,142.30 L 95.22,141.30 L 95.01,140.23 L 94.96,137.46 L 95.00,136.06 L 95.43,133.45 L 95.57,132.86 L 95.93,131.90 L 96.58,130.93 L 96.92,130.65 L 97.56,130.31 L 97.88,130.17 L 98.48,130.10 L 99.06,130.09 L 100.06,130.83 L 100.53,131.32 L 101.22,132.98 L 101.81,136.43 L 101.86,137.21 L 101.85,138.58 L 101.83,139.23 L 101.68,140.36 L 101.59,140.89 L 101.30,141.78 L 101.14,142.19 L 100.71,142.83 L 100.48,143.12 L 99.91,143.51 L 99.60,143.68 L 98.90,143.83 L 98.52,143.87 L 97.68,143.77 L 97.23,143.69 M 113.71,143.38 L 113.57,143.24 L 113.36,142.54 L 113.27,142.13 L 113.13,141.00 L 113.02,139.80 L 113.02,136.79 L 113.06,135.29 L 113.33,132.65 L 113.41,132.07 L 113.62,131.20 L 114.01,130.49 L 114.29,130.32 L 115.32,130.24 L 117.05,130.52 L 117.51,130.66 L 118.12,131.06 L 118.39,131.29 L 118.70,132.09 L 118.82,132.56 L 118.89,134.04 L 118.89,134.47 L 118.87,135.49 L 118.80,137.33 L 118.73,138.66 L 118.57,140.55 L 118.48,141.39 L 118.19,142.47 L 118.03,142.93 L 117.53,143.43 L 116.46,143.79 L 115.90,143.87 L 114.81,143.79 L 114.31,143.71 M 128.58,139.68 L 128.09,139.32 L 127.42,138.19 L 127.15,136.43 L 127.24,135.99 L 127.70,135.38 L 127.86,135.24 L 128.35,135.02 L 128.63,134.92 L 129.41,134.76 L 129.84,134.68 L 130.97,134.57 L 131.60,134.51 L 133.17,134.42 L 134.02,134.38 L 136.10,134.31 L 139.87,134.22 L 141.66,134.18 L 144.75,134.18 L 146.20,134.19 L 148.64,134.30 L 149.77,134.37 L 151.58,134.61 L 152.41,134.75 L 153.61,135.12 L 154.14,135.32 L 154.78,135.84 L 155.02,136.12 L 155.11,136.79 L 155.08,137.14 L 154.65,137.98 L 153.43,139.43 L 153.17,139.69 L 151.88,140.12 L 151.13,140.32 L 149.06,140.63 L 147.96,140.77 L 145.39,140.96 L 144.06,141.03 L 141.27,141.09 L 139.86,141.11 L 137.11,141.04 L 135.77,140.99 L 133.34,140.79 L 132.19,140.67 L 130.36,140.34 L 129.54,140.16 M 164.92,102.08 L 164.11,101.26 L 162.98,99.47 L 162.50,98.55 L 162.01,96.65 L 161.84,95.70 L 161.94,93.80 L 162.06,92.86 L 162.69,91.09 L 163.07,90.22 L 164.19,88.68 L 164.80,87.95 L 166.36,86.75 L 167.19,86.20 L 169.13,85.47 L 172.42,85.00 L 173.23,85.00 L 174.78,85.27 L 175.53,85.44 L 176.94,86.03 L 177.62,86.36 L 178.85,87.21 L 179.43,87.67 L 180.44,88.74 L 180.91,89.30 L 181.66,90.55 L 182.00,91.19 L 182.45,92.57 L 182.63,93.27 L 182.74,94.73 L 182.48,96.96 L 182.24,97.96 L 181.40,99.70 L 180.93,100.53 L 179.72,101.93 L 179.07,102.58 L 177.57,103.59 L 176.80,104.05 L 175.11,104.65 L 174.26,104.90 L 172.48,105.08 L 171.59,105.10 L 169.81,104.81 L 168.93,104.61 L 167.24,103.83 L 166.42,103.37 M 176.00,97.00 L 176.38,96.29 L 176.57,95.00 L 176.00,93.00 L 175.76,92.56 L 175.11,91.91 L 174.77,91.62 L 173.95,91.26 L 173.53,91.12 L 172.64,91.03 L 172.19,91.01 L 171.29,91.18 L 170.85,91.29 L 170.03,91.68 L 169.64,91.90 L 168.98,92.50 L 168.68,92.83 L 168.27,93.62 L 168.00,95.00 L 168.00,95.50 L 168.27,96.38 L 168.44,96.80 L 168.98,97.50 L 169.29,97.82 L 170.03,98.32 L 170.42,98.55 L 171.29,98.82 L 171.73,98.93 L 172.64,98.97 L 173.09,98.96 L 173.95,98.74 L 174.37,98.59 L 175.11,98.09 L 175.46,97.80 M 43.20,100.80 L 42.99,100.59 L 42.65,99.86 L 42.49,99.46 L 42.27,98.45 L 42.07,97.38 L 42.02,94.83 L 42.04,93.56 L 42.42,91.26 L 42.54,90.74 L 42.86,89.90 L 43.45,89.04 L 43.85,88.71 L 45.08,88.38 L 46.95,88.48 L 47.39,88.62 L 48.01,89.03 L 48.29,89.27 L 48.63,90.06 L 48.78,90.52 L 48.93,91.92 L 49.00,94.96 L 49.00,96.06 L 48.92,97.75 L 48.87,98.53 L 48.66,99.65 L 48.53,100.15 L 48.17,100.81 L 47.42,101.39 L 46.86,101.61 L 46.01,101.85 L 45.62,101.94 L 44.98,101.93 L 44.68,101.89 L 44.12,101.59 L 43.83,101.40 M 61.20,100.80 L 60.96,100.56 L 60.59,99.75 L 60.42,99.30 L 60.19,98.16 L 59.98,96.95 L 59.96,94.13 L 60.01,92.73 L 60.46,90.32 L 60.60,89.79 L 60.97,88.99 L 61.64,88.31 L 62.37,88.03 L 63.64,88.09 L 64.24,88.22 L 65.20,89.07 L 65.65,89.59 L 66.28,91.20 L 66.81,94.43 L 66.86,95.23 L 66.82,96.67 L 66.77,97.36 L 66.56,98.57 L 66.43,99.14 L 66.06,100.09 L 65.86,100.53 L 65.36,101.21 L 65.10,101.51 L 64.49,101.87 L 64.18,102.02 L 63.49,102.05 L 63.13,102.03 L 62.38,101.71 L 62.00,101.50 M 78.04,100.07 L 77.71,99.46 L 77.28,98.13 L 77.10,97.45 L 76.95,96.05 L 76.86,94.65 L 77.39,92.01 L 77.57,91.40 L 78.08,90.32 L 78.36,89.81 L 79.03,89.02 L 79.39,88.67 L 80.21,88.25 L 81.57,88.15 L 81.97,88.23 L 82.56,88.57 L 82.82,88.79 L 83.19,89.56 L 83.36,90.02 L 83.57,91.41 L 83.80,94.42 L 83.86,95.43 L 83.86,97.09 L 83.85,97.87 L 83.72,99.08 L 83.64,99.63 L 83.37,100.42 L 82.80,101.14 L 82.28,101.48 L 81.32,101.83 L 80.86,101.95 L 80.04,101.88 L 79.65,101.79 L 78.95,101.29 L 78.62,100.99 M 96.20,100.80 L 95.98,100.58 L 95.62,99.84 L 95.46,99.43 L 95.23,98.41 L 95.04,97.34 L 95.00,94.78 L 95.04,93.51 L 95.47,91.20 L 95.60,90.68 L 95.95,89.82 L 96.58,88.93 L 96.92,88.65 L 97.56,88.31 L 97.88,88.17 L 98.48,88.10 L 99.06,88.09 L 100.06,88.83 L 100.53,89.32 L 101.22,90.98 L 101.81,94.43 L 101.86,95.23 L 101.82,96.67 L 101.77,97.36 L 101.56,98.57 L 101.43,99.14 L 101.06,100.09 L 100.86,100.53 L 100.36,101.21 L 100.10,101.51 L 99.49,101.87 L 99.18,102.02 L 98.49,102.05 L 98.13,102.03 L 97.38,101.71 L 97.00,101.50 M 114.20,101.16 L 113.97,101.01 L 113.63,100.43 L 113.48,100.08 L 113.28,99.08 L 113.20,98.53 L 113.14,97.09 L 113.20,94.41 L 113.23,93.71 L 113.30,92.56 L 113.34,92.02 L 113.42,91.14 L 113.52,90.33 L 113.82,89.37 L 114.01,88.98 L 114.61,88.64 L 116.00,88.50 L 116.60,88.50 L 117.41,88.63 L 117.75,88.75 L 118.15,89.40 L 118.32,89.82 L 118.45,91.34 L 118.47,91.79 L 118.49,92.91 L 118.50,94.99 L 118.50,95.82 L 118.45,97.24 L 118.41,97.92 L 118.28,99.04 L 118.20,99.57 L 117.98,100.40 L 117.86,100.78 L 117.55,101.34 L 117.38,101.58 L 116.96,101.86 L 116.74,101.97 L 116.22,102.00 L 115.94,101.98 L 115.30,101.76 L 114.96,101.61 M 127.31,96.36 L 127.14,95.92 L 126.97,95.14 L 126.93,94.77 L 127.03,94.12 L 127.11,93.82 L 127.51,93.29 L 127.74,93.05 L 128.46,92.63 L 128.86,92.44 L 129.93,92.12 L 130.51,91.97 L 131.96,91.73 L 132.73,91.61 L 134.59,91.44 L 137.86,91.23 L 139.61,91.15 L 142.66,91.09 L 144.11,91.07 L 146.58,91.14 L 147.75,91.19 L 149.68,91.41 L 150.59,91.54 L 152.01,91.91 L 152.66,92.12 L 153.59,92.66 L 154.00,92.95 L 154.49,93.66 L 154.67,94.04 L 154.73,94.94 L 154.36,96.50 L 154.24,96.81 L 153.54,97.25 L 153.31,97.35 L 152.67,97.51 L 152.32,97.59 L 151.40,97.71 L 150.90,97.77 L 149.65,97.85 L 148.98,97.89 L 147.36,97.94 L 146.50,97.96 L 144.46,97.99 L 140.86,98.00 L 139.48,98.00 L 137.13,97.99 L 136.02,97.98 L 134.16,97.94 L 133.29,97.92 L 131.86,97.85 L 131.20,97.81 L 130.15,97.71 L 129.66,97.65 L 128.92,97.50 L 128.59,97.41 L 128.10,97.21 L 127.67,96.99 M 49.93,40.42 L 49.45,39.84 L 49.16,38.81 L 49.67,37.17 L 49.79,36.98 L 50.26,36.66 L 50.56,36.51 L 51.59,36.26 L 52.20,36.14 L 54.06,35.96 L 54.59,35.91 L 55.85,35.83 L 56.52,35.79 L 58.08,35.73 L 58.91,35.69 L 60.80,35.63 L 61.80,35.61 L 64.06,35.55 L 65.24,35.53 L 67.91,35.49 L 69.30,35.47 L 72.40,35.43 L 74.01,35.41 L 77.58,35.38 L 79.43,35.36 L 83.50,35.33 L 85.61,35.31 L 90.22,35.28 L 97.78,35.24 L 100.39,35.23 L 105.19,35.20 L 107.53,35.19 L 111.80,35.17 L 113.88,35.17 L 117.66,35.16 L 119.49,35.15 L 122.80,35.15 L 124.41,35.15 L 127.29,35.16 L 128.68,35.17 L 131.15,35.19 L 132.35,35.20 L 134.46,35.23 L 135.47,35.25 L 137.24,35.29 L 138.08,35.31 L 139.54,35.37 L 140.24,35.40 L 141.43,35.47 L 142.55,35.54 L 144.10,35.73 L 144.78,35.83 L 145.64,36.09 L 146.42,36.56 L 147.01,37.16 L 147.43,38.22 L 146.96,40.07 L 146.84,40.30 L 146.47,40.69 L 146.24,40.87 L 145.42,41.16 L 144.91,41.29 L 143.28,41.50 L 142.81,41.55 L 141.65,41.63 L 141.03,41.67 L 139.56,41.73 L 138.78,41.77 L 136.94,41.82 L 135.97,41.84 L 133.74,41.88 L 132.56,41.90 L 129.88,41.93 L 128.48,41.94 L 125.31,41.96 L 123.66,41.97 L 119.96,41.98 L 118.03,41.99 L 113.76,41.99 L 111.55,42.00 L 106.66,42.00 L 98.59,42.00 L 95.96,42.00 L 91.14,42.00 L 88.79,42.00 L 84.49,41.99 L 82.41,41.99 L 78.61,41.97 L 76.77,41.97 L 73.44,41.95 L 71.83,41.94 L 68.94,41.92 L 67.54,41.90 L 65.05,41.87 L 63.86,41.85 L 61.74,41.81 L 60.73,41.79 L 58.95,41.73 L 58.11,41.71 L 56.65,41.64 L 55.95,41.61 L 54.77,41.53 L 53.65,41.46 L 52.12,41.26 L 51.45,41.15 L 50.63,40.89 L 50.29,40.75 M 155.31,40.36 L 155.14,39.91 L 154.97,39.12 L 154.92,38.73 L 155.02,38.07 L 155.10,37.76 L 155.49,37.22 L 155.72,36.97 L 156.41,36.54 L 156.80,36.34 L 157.82,36.02 L 158.37,35.87 L 159.75,35.64 L 160.48,35.53 L 162.23,35.37 L 165.30,35.21 L 166.28,35.18 L 167.93,35.14 L 168.71,35.12 L 169.99,35.11 L 170.59,35.12 L 171.56,35.16 L 172.01,35.19 L 172.72,35.30 L 173.38,35.42 L 174.17,35.89 L 175.01,37.03 L 175.27,37.51 L 175.58,38.35 L 175.69,38.75 L 175.69,39.43 L 175.65,39.75 L 175.32,40.29 L 175.12,40.55 L 174.43,40.96 L 174.04,41.15 L 172.98,41.44 L 172.39,41.58 L 170.92,41.76 L 170.13,41.85 L 168.22,41.94 L 164.85,42.00 L 163.93,42.00 L 162.35,41.98 L 161.61,41.97 L 160.34,41.93 L 159.14,41.89 L 157.52,41.69 L 156.82,41.57 L 155.99,41.19 L 155.64,40.97 Z" fill="#f7d883"/>
</g>
</svg>